<svg width="1252" height="800" viewBox="0 0 1252 800" fill="none" xmlns="http://www.w3.org/2000/svg">
<rect width="1252" height="800" fill="url(#paint0_linear_788_369)"/>
<rect x="146.5" y="100.5" width="959" height="599" rx="23.5" fill="#FAFAFA" stroke="#E4E4E7"/>
<path d="M331.238 501.224C393.323 440.389 453.201 453.679 483.272 462.807C462.837 494.503 427.224 515.49 386.707 515.49C366.589 515.49 347.681 510.314 331.238 501.224ZM327.496 301.623C378.422 355.192 342.169 420.39 316.372 463.359C312.54 469.743 308.802 475.835 305.242 481.58C284.629 460.825 271.893 432.238 271.893 400.676C271.893 358.902 294.167 321.966 327.496 301.623ZM386.624 285C450.034 285 501.521 337.266 501.521 400.676C501.521 413.552 499.4 425.932 495.491 437.488C430.177 414.57 381.977 432.987 353.256 454.175C389.631 403.207 398.439 332.669 358.442 288.542C367.458 286.231 376.898 285 386.624 285Z" fill="#F37233"/>
<path d="M834.189 514.845V469.842C834.189 467.289 834.253 464.512 834.38 461.512C834.571 458.512 834.858 455.767 835.24 453.278H834.094C831.228 457.937 827.247 461.863 822.152 465.055C817.057 468.183 810.402 469.747 802.186 469.747C789.767 469.747 779.768 465.151 772.189 455.959C764.61 446.703 760.82 433.042 760.82 414.978C760.82 402.977 762.572 392.891 766.075 384.72C769.577 376.55 774.481 370.358 780.787 366.145C787.155 361.932 794.543 359.825 802.95 359.825C811.038 359.825 817.598 361.421 822.63 364.613C827.725 367.741 831.801 371.603 834.858 376.199H835.622L838.106 361.836H856.735V514.845H834.189ZM808.873 451.65C815.242 451.65 820.337 450.437 824.158 448.011C827.979 445.586 830.75 441.915 832.47 437C834.189 432.021 835.113 425.861 835.24 418.52V415.073C835.24 403.073 833.297 393.944 829.412 387.689C825.528 381.433 818.617 378.305 808.682 378.305C800.275 378.305 794.034 381.593 789.958 388.167C785.882 394.679 783.844 403.743 783.844 415.361C783.844 427.106 785.882 436.106 789.958 442.362C794.097 448.554 800.403 451.65 808.873 451.65Z" fill="#27272A"/>
<path d="M869.918 361.836H894.374L916.06 422.35C917.015 425.095 917.875 427.808 918.639 430.489C919.467 433.106 920.168 435.691 920.741 438.245C921.378 440.798 921.888 443.351 922.27 445.905H922.843C923.48 442.585 924.371 438.883 925.518 434.798C926.728 430.648 928.065 426.499 929.53 422.35L950.356 361.836H974.526L929.148 482.385C926.537 489.279 923.321 495.152 919.499 500.003C915.742 504.919 911.283 508.621 906.125 511.11C900.966 513.664 895.075 514.94 888.451 514.94C885.267 514.94 882.496 514.749 880.14 514.366C877.783 514.047 875.777 513.696 874.121 513.313V495.312C875.459 495.631 877.147 495.918 879.185 496.173C881.223 496.429 883.324 496.556 885.49 496.556C889.502 496.556 892.973 495.758 895.903 494.163C898.832 492.567 901.316 490.301 903.354 487.364C905.392 484.492 907.08 481.204 908.417 477.502L912.143 467.544L869.918 361.836Z" fill="#27272A"/>
<path d="M703.882 359.825C715.792 359.825 725.058 362.921 731.682 369.113C738.369 375.241 741.713 385.103 741.713 398.7V467.832H719.263V402.913C719.263 394.679 717.575 388.519 714.199 384.433C710.824 380.284 705.601 378.209 698.532 378.209C688.278 378.209 681.145 381.369 677.133 387.689C673.184 394.008 671.21 403.168 671.21 415.169V467.832H648.76V361.836H666.242L669.395 376.199H670.637C672.929 372.496 675.764 369.464 679.139 367.102C682.578 364.677 686.399 362.858 690.603 361.645C694.87 360.432 699.296 359.825 703.882 359.825Z" fill="#27272A"/>
<path d="M577.303 467.832H554.758V318.845H577.303V467.832Z" fill="#27272A"/>
<path d="M624.208 361.836V467.831H601.758V361.836H624.208Z" fill="#27272A"/>
<path d="M622.012 324.014C619.528 322.163 616.567 321.237 613.128 321.237C609.561 321.237 606.536 322.163 604.052 324.014C601.632 325.865 600.422 329.057 600.422 333.589C600.422 338.057 601.632 341.249 604.052 343.164C606.536 345.015 609.561 345.941 613.128 345.941C616.567 345.941 619.528 345.015 622.012 343.164C624.56 341.249 625.833 338.057 625.833 333.589C625.833 329.057 624.56 325.865 622.012 324.014Z" fill="#F37233"/>
<defs>
<linearGradient id="paint0_linear_788_369" x1="1252" y1="718.248" x2="537.827" y2="-272.82" gradientUnits="userSpaceOnUse">
<stop stop-color="#F46F2D"/>
<stop offset="1" stop-color="#E58B29"/>
</linearGradient>
</defs>
</svg>
